<svg xmlns="http://www.w3.org/2000/svg" viewBox="0 0 529.11 438.29"><defs><style>.cls-1{fill:#f196ba;}.cls-2{fill:#f4a3c2;}.cls-3{fill:#f5abc7;}.cls-4{fill:#f7c1d5;}.cls-5{fill:#fae1e9;}.cls-6{fill:#f8c7d9;}.cls-7{fill:#b6c8e7;}.cls-8{fill:#f089b2;}.cls-9{fill:#f7d171;}.cls-10{fill:#575a7b;}.cls-11{fill:#c39b8a;}.cls-12{fill:#74a3d6;}.cls-13{fill:#58465f;}.cls-14{fill:#f6d3bd;}.cls-15{fill:#b5c7e7;}.cls-16{fill:#59465f;}.cls-17{fill:#594760;}.cls-18{fill:#59475f;}.cls-19{fill:#f5d2bd;}.cls-20{fill:#b4c5e3;}.cls-21{fill:#fff;}.cls-22{fill:#fffefd;}.cls-23{fill:#feffff;}</style></defs><title>header-img</title><g id="Layer_2" data-name="Layer 2"><g id="Layer_1-2" data-name="Layer 1"><path class="cls-1" d="M187.92,0h21.14a.56.56,0,0,1-.25.78,4.63,4.63,0,0,1-2.32.44c-5.33,0-10.66,0-16,0a4.67,4.67,0,0,1-2.32-.44A.56.56,0,0,1,187.92,0Z"/><path class="cls-2" d="M187.92,0c0,.16,0,.31,0,.47-.88.89-2,.78-3.1.73-2.57-.11-5.17.45-7.7-.42a.57.57,0,0,1-.24-.78Z"/><path class="cls-3" d="M209.07.47c0-.16,0-.31,0-.47h8.65a.56.56,0,0,1-.24.77C214.65,1.31,211.83,1.78,209.07.47Z"/><path class="cls-4" d="M176.87,0l0,.45c-2.42,1.29-4.92.88-7.43.32a.56.56,0,0,1-.23-.77Z"/><path class="cls-5" d="M169.18,0c0,.14,0,.29,0,.43a7.45,7.45,0,0,1-7.21,0A3,3,0,0,0,162,0Z"/><path class="cls-5" d="M229.72,0c0,.14,0,.28,0,.42-2.11,1.29-4.31.9-6.52.35A.55.55,0,0,1,223,0Z"/><path class="cls-6" d="M223,0c0,.14,0,.28,0,.42a4.55,4.55,0,0,1-5.29,0c0-.15,0-.3,0-.45Z"/><path class="cls-7" d="M367.68,164.34c.93-2.19.6-4.57.78-6.81.7-8.89,1.61-17.77,2.61-26.62,1.33-11.69,2.75-23.38,4.64-35,1.09-6.67,2-13.37,3-20,.37-2.36,1.3-3.91,4.14-4.41,10.43-1.83,20.85-3.55,31.37-4.74,5-.56,10-1.26,15-1.47a2,2,0,0,1,1.56-1c4.33-.42,8.69-.62,13-.9a1.59,1.59,0,0,1,1.28.53c12.7-.7,25.41-.48,38.12-.48,3.74,0,4.78.92,4.52,4.7-.48,6.82-1.28,13.62-1.77,20.44-.39,5.4-.95,10.78-1.53,16.16-.72,6.56-1.46,13.12-2.27,19.67q-1.36,11-3,22c-1.31,8.64-2.52,17.31-4.06,25.92-2.2,12.37-4.64,24.7-7,37-.42,2.19-1,4.36-1.55,6.5-1.35,4.82-5.13,6.42-9.58,7-1.73.24-3.48.39-5.22.58a2,2,0,0,1-2.05,0c-6-2.5-12.33-2.72-18.62-3-8.23-.38-16.45.3-24.67.79a76.82,76.82,0,0,1-9.83-.14c-7.51-.52-15-.26-22.55-.15-3,.05-4.93,2-6.57,4.23-2.52,0-4-1.16-4.21-3.51a13.1,13.1,0,0,1,.18-5,1.88,1.88,0,0,1,2-1c8.71.2,14.84-4.58,20.31-10.55,1.45-1.59,2.69-3.38,4.15-5a4.33,4.33,0,0,0,.5-5.83c-.21-1.21.55-2,1.3-2.68a167.49,167.49,0,0,0,16.48-18.33,3.38,3.38,0,0,1,2.54-1.63c4.56,1.14,5.74,3.64,3.67,7.77-.61,1.22-1.34,2.37-2,3.55-3.39,5.89-1.62,10.72,2.84,14.57a25.39,25.39,0,0,0,13,6.24,16,16,0,0,0,10.39-2.09,8.69,8.69,0,0,0,4.17-9.46A22.45,22.45,0,0,0,441,187c-1.62-3.71-1.06-7,1.94-9.84,2.33-2.2,4.58-4.48,6.8-6.78,4.33-4.5,5.75-9.66,3.47-15.64-.66-1.72-1.32-3.44-2.08-5.12a22.11,22.11,0,0,1-.88-16.38c1.37-4.28,2.59-8.55,2.28-13.15a12.06,12.06,0,0,0-4.69-9.33c-3-2.26-6.35-1.85-9.66-1.07-2.1.49-4.09,1.4-6.17,2-4.21,1.19-6.31-.5-6.07-4.83.26-4.66-2.16-8.2-7-10-8.17-3.07-16.19-2.32-24,1.22-3.45,1.56-6.65,3.51-8.89,6.73a9.94,9.94,0,0,0-1.07,10,34.5,34.5,0,0,0,4.19,6.7c2.88,4.07,3,6.11-.09,9.91-6.39,7.79-5.1,21.07,3.08,27.68a3.3,3.3,0,0,1,1.18,1.48c.17,1.32-.79,2.05-1.61,2.75-3.88,3.3-7.44,6.94-11.24,10.33a4.51,4.51,0,0,1-2,1.24,20.11,20.11,0,0,0-4.92,1c-1,.32-2,.33-2.46-.77A61.28,61.28,0,0,1,367.48,165,1,1,0,0,1,367.68,164.34Z"/><path class="cls-8" d="M217.73.45l5.29,0h6.72c7,.19,13.92.33,20.87.59,5.43.21,10.85.55,16.28.85,3,.17,4.12,1.34,4.09,4.4-.09,9.52.06,19-.26,28.56-.31,9,0,18.1-.25,27.14-.35,11-.44,21.92-.45,32.88a24,24,0,0,1-.62,5c-1.24,5.71-4.21,8.23-10.09,8.27-11.45.09-22.9-.13-34.35.09-8.86.17-17.71.84-26.57,1.22-8.49.37-17-.16-25.43-.54-6.77-.3-13.54-1-20.28-1.73-7.93-.87-15.87-1.78-23.75-3-6.37-1-8.83-4.08-8.77-10.52.11-12,.27-24,.62-36,.29-10.23.84-20.45,1.38-30.66.38-7.18.9-14.36,1.42-21.53.18-2.56,1.59-3.73,4.56-3.88q6.72-.31,13.43-.52C148.36.79,155.16.61,162,.42h7.21l7.68,0,11.07,0h21.16Z"/><path class="cls-9" d="M390.65,194.1c2.14,3.08,2.09,3.43-.33,6.43a71.62,71.62,0,0,1-8.56,9.35c-5.15,4.47-11,6.93-18,6.38-1.29.66-2.49,0-3.63-.41a21.56,21.56,0,0,1-8.81-6.21,1.87,1.87,0,0,1-.66-1.69c2.13-1.7,1.85-3.65,1-6-4.47-12.16-8.66-24.42-12.83-36.69a15.67,15.67,0,0,0-1.12-2.9c-.76-1.34-1.86-2-3.39-1.39s-1.72,1.83-1.35,3.2c.72,2.62,1.63,5.19,2.54,7.75,3.32,9.35,6.51,18.74,9.78,28.1a38.85,38.85,0,0,0,4.11,8.6c.42,8,.25,15.93.09,23.89a7.49,7.49,0,0,1-1.66,4.65,10,10,0,0,1-7.43,2.83c-9.43.07-18.88.31-28.3-.08-6.22-.26-12.47-.17-18.67-.9-2.51-.3-5.15-.42-6.91-2.71a9.72,9.72,0,0,1-3.15-6.48c-.74-7.07.05-14.08.8-21.05,1.12-10.4,2.25-20.81,4.18-31.1,2.16-11.53,3.77-23.21,8.17-34.2,2.69-6.73,6.47-12.69,12.78-16.67,2-1.24.69-3.25,1.26-4.81a1,1,0,0,1,.89-.23c4,1.34,7.62.14,11.09-1.86a3.39,3.39,0,0,1,.9-.29c2.84-.17,5.62-.1,7.58,2.45a14.7,14.7,0,0,0,6.46,6.22c13.25,6.12,21.31,17,27.29,29.73,1,2.09,1.93,4.21,2.89,6.32,1.18,3.2,2.45,6.37,3.51,9.61.5,1.53,1.2,1.8,2.58,1.19a8.29,8.29,0,0,1,4.89-.66,3.36,3.36,0,0,1,2.25,2.28,80.4,80.4,0,0,0,8.51,14.82A8.09,8.09,0,0,1,390.65,194.1Z"/><path class="cls-10" d="M187.44,211.88c11.08.13,22.16-.47,33.23-.68,3.67-.07,7.34-.23,11-.35,7-.9,14-1.21,21-1.42a2.65,2.65,0,0,1,2,.56c4.16-.12,8.31-.22,12.46-.37,3.59-.13,4.63.69,5,4.19q.75,7.16,1.41,14.31c.25,2.76-.59,3.89-3.28,4.31-9.95,1.53-19.9,3-29.84,4.52-5.22-.44-10.46-.18-15.68-.35-2.93-.1-5.33.41-6.66,3.31-9.44.17-18.87.32-28.31.53-18.48.42-36.95.87-55.43,1-13,.09-26.09.09-39,2.64A55.16,55.16,0,0,0,87.49,246c-3.17-3.74-7.54-3-11.67-3-.94,0-1.51.74-2,1.52-.28.46-.32,1.35-1.28,1-1.35-3.49-.83-7.12-.47-10.64.66-6.37,1.58-12.7,1.31-19.14-.1-2.46.59-3,3.46-3,11.44-.08,22.86.77,34.3.43,3.43-.1,6.88.18,10.31-.14l.16-.1a4.6,4.6,0,0,1,2.73-.75c.55,0,1.11,0,1.67,0,18,.35,35.94-.69,53.92-.49a34.43,34.43,0,0,0,4.3-.33A3.92,3.92,0,0,1,187.44,211.88Z"/><path class="cls-7" d="M187.44,211.88c-8.92.74-17.87.31-26.8.62-13,.44-26,.37-39,.37a5.31,5.31,0,0,1,3.77-3.32,85.41,85.41,0,0,1,18.84-3.9c.66-.05,1.3,0,1.42-.91.73-.84,1.74-.68,2.68-.69a37.63,37.63,0,0,0,7.09-1c1.39-.3,2.36-1.1,2.19-2.65a2.32,2.32,0,0,0-2.68-2.17c-3,.22-6,.4-9.06.56-2.2.11-2.12,2.32-3.18,3.48a2.25,2.25,0,0,0-1.83-.92,109.81,109.81,0,0,1-16.71-1c-7-.85-14.2-.57-21-2.71-4.81-1.5-7.07-5-7.51-10-.79-8.87-.52-17.75-.32-26.62.16-7.31.9-14.62,1.53-21.92a72.79,72.79,0,0,0,.29-8.76,18.09,18.09,0,0,1,.9-5.41c1.3-4.67,4.91-6.11,9.21-6.7,6.88-.94,13.8-1.19,20.74-1.54,12.48-.64,25-.44,37.43-.32,8.91.09,17.82.85,26.71,1.75,4.28.43,8.55.81,12.8,1.5s6.26,2.6,7,6.91a158.08,158.08,0,0,1,2.31,35.28c-.37,8.66-1.19,17.31-2.21,25.94-.68,5.76-4.14,6.9-8.39,7.32-8.88.86-17.77,1.62-26.65,2.37-3,.26-6,.47-9.08.53-2.09,0-2.68.92-2.68,3s.64,2.32,2.47,2.44c5.75.36,11.43,1.16,16.57,4.1C186.07,208.46,187.37,209.7,187.44,211.88Z"/><path class="cls-11" d="M121.46,213c-4.36.65-8.75.25-13.12.3-10.72.09-21.44.08-32.15,0-1.55,0-2.35.19-2.17,2.06.59,6.4-.49,12.71-1.14,19A40.72,40.72,0,0,0,73,245.6a2,2,0,0,1,.71,1.53c.13,4.64.13,9.28,0,13.91-.15,7.06-3.48,10.62-10.52,11.66-2.7.41-5.41.39-8.12.61-3.66-.24-7.33-.08-11-.14-1.67,0-3.36,0-4.81-1.09a3,3,0,0,1-.55-1.81c0-5.28-.29-10.56.15-15.83.55-6.71.2-13.43.21-20.15,0-1.49-.59-2.72-2.36-2.71s-2.14,1.14-2.3,2.54a55.39,55.39,0,0,0-.53,7.17q.18,13.8-.49,27.58c0,.94.06,1.95-.78,2.66-5-.25-9.9-.61-14.67-2.11-6.45-2-9.08-5.31-9.21-12.08-.26-12.73.23-25.43,1.2-38.13.2-2.67.64-5.32-.7-8.1s.62-7.06,3.65-9.22c4.52-3.22,9.69-4,15.06-3.63,8.86.68,17.4,3.28,26.19,4.45.12-.1.26-.25.4-.24,5.76.39,11.41,1.22,16.28,4.7a7.29,7.29,0,0,1,2.33,3,3.29,3.29,0,0,0,3.44,2c3.35-.05,6.7,0,10.05,0a4,4,0,0,1,2.74.62l28.7.06C119.24,212.87,120.35,212.94,121.46,213Z"/><path class="cls-12" d="M286.54,236.31c3.84,2.16,8.13,2.11,12.32,2.31,13.87.67,27.75.82,41.64.62a10.38,10.38,0,0,0,6.86-2.32c1.42,1.77.85,3.85.71,5.77a139.34,139.34,0,0,0,0,21.33c.39,5.18.22,10.39.44,15.58.34,8.33,1.27,16.57,2.23,24.83.41,3.59,0,7.1-3.55,9.29a22.73,22.73,0,0,1-12.8,1c.36-7.51-.89-15-1-22.45-.11-8.39-.86-16.77-.63-25.18a10.75,10.75,0,0,0-.2-3.1,2.39,2.39,0,0,0-2.67-1.92c-1.25.11-1.73,1-1.84,2.15-.09.88-.06,1.76-.07,2.64-.14,10-.09,20,.55,30,.38,6,.36,12,1.74,17.85-2,1.86-4.16,1.43-6.38.54H313.29a4,4,0,0,1-3,.66c-3.58-.24-7.17-.47-10.76-.62a6.57,6.57,0,0,1-3.44-.88,1.49,1.49,0,0,1-.18-1.37c1.41-6.53,1.18-13.2,1.73-19.8.73-8.76,1.12-17.55,1.82-26.32a24,24,0,0,0,0-4.79c-.15-1.22-.71-2.16-2.09-2.22a2.29,2.29,0,0,0-2.42,1.91,19.46,19.46,0,0,0-.64,4c-.63,11.65-1.51,23.29-2.33,34.93-.3,4.3-.67,8.6-.68,12.92-1.73,1.2-3.33.63-4.9-.36-2.37-.33-4.74-.62-7.1-1-2.95-.45-3.74-1.27-3.49-4.3.58-7.14,1.17-14.29,2-21.41q2.18-18.15,5.66-36.09C284.49,245.8,285.54,241.06,286.54,236.31Z"/><path class="cls-9" d="M422.41,367.52c17.88-.35,26.53,14.05,25.88,26.45a34.41,34.41,0,0,1-7.08,18.82c-10.9,14.77-25.8,22.87-43.79,25.27a22.16,22.16,0,0,1-17.18-4.53c-5.05-4-7.15-9.91-5.29-16,.57-1.85.23-2.26-1.63-2.5a18.47,18.47,0,0,1-9-3.69c-3.55-2.74-5-6.27-4-10.76,1.36-5.86,5.07-10.07,9.57-13.69,6.06-4.87,13.18-7.8,20.26-10.79,9-3.79,18.13-7.15,27.93-8.25C419.54,367.68,421,367.62,422.41,367.52Z"/><path class="cls-10" d="M238.91,242.68c1.3,26.46,3.41,52.84,6.53,79.15,1.62,13.74,3.56,27.42,6.14,41a33,33,0,0,1,.19,12.64c-1.2,6.12-5.5,9.55-10.68,8.44-3.17-.68-5.13-2.8-6.44-5.6-1.91-4.05-2.32-8.46-3-12.8q-3.81-25.62-6.6-51.39c-1.76-16.3-3.35-32.62-4.52-49-.55-7.65-1.35-15.29-1.5-23a111.84,111.84,0,0,1,19.28.07C238.59,242.28,238.73,242.52,238.91,242.68Z"/><path class="cls-11" d="M397.9,241.26q-2.4,11.84-4.82,23.68c-5.65,27.68-10.81,55.47-16.83,83.08A44.76,44.76,0,0,1,372,360.2c-1.72,3.13-3.88,5.71-8,5.51-2.09-.09-3.55-1.27-5-2.47a2.25,2.25,0,0,1-1-1.31,13.65,13.65,0,0,1-.33-6.63c6-37.08,11.74-74.22,17.63-111.33.25-1.52.07-3.26,1.56-4.38,6.44.43,12.9.62,19.35.95A2.16,2.16,0,0,1,397.9,241.26Z"/><path class="cls-11" d="M52.38,327.27,38,323.81a1.21,1.21,0,0,1-.29-.64c.21-7.26-.32-14.52.32-21.77.37-4.14.09-8.29.2-12.43a9.48,9.48,0,0,1,.4-3.78c1-1.26,2.44-.91,3.75-.78a118.29,118.29,0,0,1,11.93,2.27c6.82,1.55,13.66,3,20.48,4.58,1,.23,2.06.35,2.69,1.33,7.23,1.6,14.5,3,21.66,4.87,8,2.08,9.46,6.85,4.18,13.32-2,2.47-4.14,4.85-6.21,7.27-1.2,2.38-3.64,3.51-5.4,5.32-.81-.18-1.33.34-1.91.76a32.48,32.48,0,0,1-15.36,6c-2.21,1.33-4.6.66-6.91.57-1.41-.06-2.82-.31-4.23-.5-2.81-.54-5.63-1-8.44-1.63A3.29,3.29,0,0,1,52.38,327.27Z"/><path class="cls-11" d="M454.16,316.33c.87,6.16,1.82,12.31,2.56,18.49.8,6.64,2.42,13.25,1.22,20-1,5.41-3.47,9.79-8.77,12.07-2.95,1.26-4.41.66-5.67-2.31a85.28,85.28,0,0,1-5.18-18.17c-2.93-16.18-5.8-32.37-8.06-48.66-1-7.43-1.36-14.95-2.11-22.42-1.12-11.2-1.63-22.47-3.85-33.54.77-.94,1.87-.76,2.89-.78,2.87,0,5.75,0,8.63,0,4.18,0,4.44.22,5.12,4.27q2.61,15.6,5.14,31.23c1.83,11.44,3.93,22.84,5.6,34.31A9.54,9.54,0,0,0,454.16,316.33Z"/><path class="cls-13" d="M323.44,120.09c-4,2.54-8.17,4-12.86,1.91-5.46-4.23-5.41-10-4.15-15.9.38-1.76.19-2.67-1.34-3.87-5.6-4.38-4.86-14.53,1.16-18.34a6.3,6.3,0,0,1,8.08,1.22c1.33,1.37,2,1,3.24.07A26.51,26.51,0,0,1,328,80c4.06-1,7.69-.18,10.49,3,4.28,4.87,7,10.32,5.58,17.07a10.43,10.43,0,0,1-1.19,3.1c-1.05,1.8-2.86,3.12-1.95,5.8.46,1.37-1.12,2.5-2.63,3-1.58.9-2.52-.15-3.43-1.17-1.56-1.75-1.69-1.78-2.93.32a40.1,40.1,0,0,1-5.37,6.94A9,9,0,0,1,323.44,120.09Z"/><path class="cls-11" d="M367.19,224.89c1.24-3.86,4.35-4.78,7.86-4.78,7.91,0,15.82-.12,23.74.32,8.94.5,17.87-.78,26.82-.81,7,0,13.89.24,20.68,1.92a55.89,55.89,0,0,1,5.4,1.91,7.93,7.93,0,0,1,3.78,9c-.77,3.54-3.28,5.44-6.67,6.33-1.23-2.78-3.51-3.13-6.28-3.1-10.54.13-21.09,0-31.64.06-8.94,0-17.87-.36-26.8-.89-2.79-.16-5.82-.83-8.05,1.78a10.9,10.9,0,0,1-5.88.32,4.46,4.46,0,0,1-3.1-2.05C365.46,232.59,365.53,227.25,367.19,224.89Z"/><path class="cls-10" d="M52.38,327.27,63,329.54c3.78,1.73,5.74,5,7,8.69A24.76,24.76,0,0,1,71.37,346c.06,5,.39,9.92.4,14.87,0,12.65.94,25.28.57,37.92,0,1.18.47,2.62-1.08,3.34V379.43c-1.73,2.69-3.18,4.74-5.38,6.11a16,16,0,0,1-6.46,2.38c-6.42.83-10.47-2.52-10-8.89.79-10,1.18-20.13,1.76-30.19C51.62,341.65,52,334.46,52.38,327.27Z"/><path class="cls-11" d="M446.44,247.38c3,4.9,5.16,10.25,7.59,15.43,7.57,16.13,14.75,32.43,20.79,49.2,1.95,5.41,3.91,10.82,5.39,16.38.67,2.5.78,5-1.61,6.74s-5.12,1.47-7.65,0c-2.91-1.7-4.92-4.32-6.76-7-2.77-4.1-5.43-8.27-8.14-12.41.49-4.29-.69-8.4-1.38-12.55-2.9-17.36-5.66-34.73-8.57-52.09C445.89,249.8,445.41,248.51,446.44,247.38Z"/><path class="cls-13" d="M39.1,284.88q-.35,17.58-.67,35.15a14.49,14.49,0,0,1-.45,3.78,2.84,2.84,0,0,0-1.14,2.49q-1.08,13.62-2.21,27.24-1.05,12.78-2.08,25.56a9.29,9.29,0,0,1-.28,1.66,3.26,3.26,0,0,1-3.79,2.56c-1.9-.21-2.73-1.45-2.58-3.36.42-5.58.79-11.17,1.23-16.74q1.34-17.1,2.72-34.18c.18-2.23.38-4.46.57-6.69a10.09,10.09,0,0,0,.61-3.28c0-9.9.78-19.8.48-29.71,0-1.18-.17-2.43.76-3.41a108.45,108.45,0,0,0,.39-14.42q.31-15.07.64-30.16c.06-2.47.23-4.94.31-7.41.06-2.12,1.07-3.29,3.21-3.33S40,231.74,40,234.18q-.27,18-.58,35.92c0,.64.05,1.28.08,1.91a1.48,1.48,0,0,1,.48.82A46,46,0,0,1,39.1,284.88Z"/><path class="cls-8" d="M357.07,367.68a29.58,29.58,0,0,0,5.06,3.2c4.91,2.76,5.13,6.81.39,9.82-4.93,3.13-10.54,4.46-16.19,5.63a31.7,31.7,0,0,1-8.36.47c-4.67-.26-7.78-2.69-8.63-7.22-1.33-7.06-2.33-14.17-3.54-21.25a7.46,7.46,0,0,1,1.51-5.6c.61-1.37,1.87-1.55,3.15-1.73,6.16-.88,12.35-.38,18.52-.44,1.78.16,3.65.13,4.47,2.22-.59,1.35-2.07,1.34-3.11,2-1.76,1.09-3.58,2.09-5.31,3.22a2.45,2.45,0,0,0-.87,3.54,2.31,2.31,0,0,0,3.45,1c1.22-.6,2.4-1.26,3.58-1.93.8-.46,1.58-1.15,2.64-.68a1.73,1.73,0,0,1,.3,1.34c-.43,1.63-1.78,2.36-3.12,3.05-1.53.78-2.41,1.86-1.75,3.64.58,1.54,2,1.86,4,1.31C354.65,368.88,355.46,367.3,357.07,367.68Z"/><path class="cls-13" d="M446.44,247.38c.16,4.89,1.36,9.63,2.13,14.42,2.59,16.15,5.31,32.28,8,48.42.31,1.85,1.1,3.76-.49,5.45l-1.88.66c-1.95-.08-2.52-1.45-2.78-3.05-1.34-8.19-2.65-16.38-4-24.57-2.45-15-4.94-29.92-7.34-44.89-.29-1.8-1-2.29-2.81-2.22-4.31.18-8.63.14-12.95.18l-26.4-.52-16.46-.59a10.24,10.24,0,0,1-4.62-1c-1.52-.69-1.82-1.79-1.08-3.23.66-2,2-2.64,4.06-2.52,21.76,1.35,43.55,1.23,65.34,1,2.67,0,3.36.76,3.66,3.86-.69,1.07-1.25,2.28-2.73,2.47-1,.13-.74.9-.63,1.47C445.73,244.27,446.1,245.82,446.44,247.38Z"/><path class="cls-14" d="M295.88,314.19c5.79.63,11.6.81,17.41,1.08-2,11.83-4.37,23.61-5.75,35.54a3.16,3.16,0,0,1-2.21.74c-5.36.45-10.72,1.18-16.12.74a3.52,3.52,0,0,1-2.28-.51c-.6-12.8-.52-25.61-.46-38.42l4.69.4C292.74,313.81,294.31,314.05,295.88,314.19Z"/><path class="cls-14" d="M349.37,351.19c-4.8,0-9.61-.09-14.4.12-2.58.12-5.3-.07-7.66,1.42-1.09-9.06-2-18.14-2.5-27.26-.18-3.4-.59-6.8-.9-10.19,2.12-.31,4.3.25,6.38-.51a11.15,11.15,0,0,1,4.23-.09c4.16-.29,8.38,0,12.43-1.37,1.24,2,1.1,4.29,1.21,6.48.51,9.49,1.32,19,1.78,28.45C350,349.28,350.17,350.32,349.37,351.19Z"/><path class="cls-8" d="M286.93,351.78c1.64-.62,3.29.06,4.93,0l15.68-.93c1.55.53,3.16,1,3.75,2.79-1.9,1.18-4.13,1.58-6.13,2.52-1.46.67-2.45,1.55-2,3.29.35,1.46,1.73,2,3.71,1.67,1.68-.26,3-1.88,4.93-1.14l.18,3.67c-.31,1.44-1.7,1.78-2.63,2.57-1.24,1-2.61,2.06-1.6,3.94.73,1.37,2.77,1.45,4.68.44,1.2-.63,2.06-2.1,3.74-1.6,2.6,1.75,5.09,3.64,6.48,6.58s.56,4.87-2.23,6.32c-2.6,1.35-5.48,1.38-8.21,1.36a53,53,0,0,1-23.36-5.46,6.45,6.45,0,0,1-3.79-5.42,119.36,119.36,0,0,1-.46-15.82A5.75,5.75,0,0,1,286.93,351.78Z"/><path class="cls-9" d="M89.42,212.81c-4.71,0-9.41,0-14.12.11A2.14,2.14,0,0,1,73,211.31c-1.32-3.3-3.92-5.08-7.2-6.09a98.72,98.72,0,0,0-11.63-2.51,21.11,21.11,0,0,1-.31-6.19c.28-4.06,3.29-7.22,7.58-8.12,1-.21,2-.38,3-.58a2,2,0,0,1,1.28-.57c5-.16,10-.88,15-.55a1.8,1.8,0,0,1,.89.31c1.66.53,3.29-.13,5-.09,3.27.07,4.53,1.06,4.55,4.43,0,3.68-.15,7.36-.45,11C90.43,205.86,89.86,209.33,89.42,212.81Z"/><path class="cls-11" d="M32.27,286c.25,11.67-.45,23.33-.48,35,0,1.13-.55,1.29-1.37,1.41a26.77,26.77,0,0,0-7.92-2c-2.75.08-5.33-.84-8-1.39-.12-.68-.63-.79-1.22-.91-3-.64-6.06-1.36-9.11-2-2.06-.41-3.51-1.35-4-3.52a4.34,4.34,0,0,1,1.73-4.84c8.19-6.49,16.15-13.29,24.77-19.21A15,15,0,0,1,32.27,286Z"/><path class="cls-12" d="M81.67,187a167,167,0,0,1-17.17.81c0-2.37,0-4.74-.07-7.11.44-.5,1-.3,1.56-.36a2.5,2.5,0,0,0,2.49-1.83,3.05,3.05,0,0,0-1.1-3.17c-1.06-1-2.88-1-3.37-2.71.89-3.51.16-7.09.43-10.63.69-.43,1.2.12,1.75.34a2.34,2.34,0,0,0,3-.68,2.47,2.47,0,0,0,.16-3.1,7.7,7.7,0,0,0-3.66-3.24c-.47-.16-1.18,0-1.23-.84.71-4,.37-8.12,2.41-11.8.69-.26,1.2.2,1.76.45a2.54,2.54,0,0,0,3-.6,2.43,2.43,0,0,0,.47-3c-.23-.5-.91-1-.28-1.64,7.27-.68,10.38,2.06,10.9,9.63a37.91,37.91,0,0,0-3.58,4.64c-1.81,3.32-.93,5,2.88,5.25a1.31,1.31,0,0,1,.67.2c0,3.52-.05,7-.08,10.55-.72.23-1.2-.3-1.74-.58a2.58,2.58,0,0,0-3.41.78L75,171.27a2.47,2.47,0,0,0,0,3.66c1.12,1.12,2.4,1,3.68,0s1.83-2.61,3.55-3Z"/><path class="cls-10" d="M77.46,292.59l-21-4.73c-.7-.16-1.39-.36-2.08-.54-.27-.31-.59-.65-.55-1,.46-4.18-.2-8.44.88-12.58a1.78,1.78,0,0,1,.5-.8c2.5-.94,5.16-.51,7.74-.84,6.75-.89,9.94-4.12,10.09-11,.11-4.7,0-9.4,0-14.1,3.41,1.4,7.27.83,10.64,2.43a170.32,170.32,0,0,0-2.89,17.24C79.57,275.28,78.56,283.94,77.46,292.59Z"/><path class="cls-11" d="M525.6,382.44c3.36,3.06,1.17,6.47-2.33,7.09-5.22.93-10.16.08-15.06-1.55-1.66-.54-3.52-1.7-5-1.33s-1.46,2.79-2.19,4.27a69.15,69.15,0,0,1-4.72,8.07c-1.13,1.68-2.64,2.41-4.52,1.36s-2-2.72-1.27-4.58c1-2.68,2.52-5.17,3.14-8,.7-.13,1.19.39,1.78.59a3.11,3.11,0,0,0,3.36-.54,2.37,2.37,0,0,0,.53-2.86,3,3,0,0,0-2.9-1.77c-.62,0-1.27.29-1.85-.15a6.44,6.44,0,0,0-3-1.91,34,34,0,0,1-10.14-7c-1.13-1.15-2.36-2.27-1.7-4.12s2.11-2.44,3.94-2.49a4.46,4.46,0,0,0,1.13-.35c4.57-.8,8.89.47,13.1,1.91a152.47,152.47,0,0,1,25.81,11.86A5.3,5.3,0,0,1,525.6,382.44Z"/><path class="cls-13" d="M71.26,402.14c.64-.77.36-1.69.36-2.54,0-5.83.22-11.68,0-17.5-.5-12.35-.56-24.7-1-37-.21-5.65-1.82-11-6.91-14.56a3.45,3.45,0,0,1-.68-1c3.8.27,7.6.85,11.43.56a11.9,11.9,0,0,0,.79,5.61c1.72,4.62,1.87,9.52,2.15,14.38.93,15.9.8,31.8.58,47.71-.06,4.08-.06,8.15-.12,12.23a15.21,15.21,0,0,1-.31,3.09,3.11,3.11,0,0,1-3.8,2.48,2.78,2.78,0,0,1-2.59-3.15Q71.19,407.3,71.26,402.14Z"/><path class="cls-13" d="M14.53,319c2.82-.46,5.37.63,8,1.39-4.51,3.29-5.59,8.25-6.08,13.3-.82,8.51-1.27,17.06-2,25.59q-1.61,20.22-3.33,40.41c-.21,2.51-1.61,3.73-3.87,3.54-2.11-.17-2.83-1.45-2.61-4.21,1-13.32,2-26.64,3.11-39.95.88-10.59,1.43-21.22,3.33-31.71A21.36,21.36,0,0,1,14.53,319Z"/><path class="cls-11" d="M236.49,208.39c-4.4-1.49-4.68-5.4-5.24-9.07-.27-1.8-.25-3.64-.38-5.46-.16-2.16,1.8-3.05,2.71-4.57a2.51,2.51,0,0,1,2.46-1.14c6,0,11.91-.82,17.88-.52a4.31,4.31,0,0,1,2.73.67,3.81,3.81,0,0,1,2.59,3.62,47.47,47.47,0,0,1-.06,11.67,5.31,5.31,0,0,1-4,4.59,3.46,3.46,0,0,1-2.79,1.09c-4.52.06-9,0-13.57,0A2.71,2.71,0,0,1,236.49,208.39Z"/><path class="cls-13" d="M91.69,323.37c1.22-2.37,3.52-3.63,5.4-5.32a31.65,31.65,0,0,1,1.34,8.73c1.35,21.58,1.12,43.18.57,64.77-.07,2.72-1.41,4.25-3.57,4.19s-3.13-1.45-3.09-4.23c.31-22.08.26-44.16-.51-66.23C91.81,324.64,91.74,324,91.69,323.37Z"/><path class="cls-10" d="M525.6,382.44c-4.86-2.18-9.38-5-14.25-7.21-6.77-3-13.5-6.05-20.85-7.45-1.87-.36-3.83.2-5.63-.62,1.11-2.18,2.19-4.37,3.35-6.52a7.85,7.85,0,0,1,6.71-4.59c.06,1.81-1.46,2.9-2.05,4.43-.86,2.23-.61,3.81,1,4.53s2.84,0,4-2.07a25.54,25.54,0,0,1,3.36-5.46l4.34,1.49c.61.87-.1,1.51-.43,2.18-.5,1-1.08,2-1.48,3-.5,1.3-.56,2.62.83,3.37a2.82,2.82,0,0,0,3.82-.9c1.4-1.75,1.73-4.15,3.46-5.69l6.72,2.46c-.51,1.62-1.87,2.72-2.52,4.27s-.76,2.8.78,3.74c1.34.82,2.86.32,3.87-1.19s1.8-3,2.69-4.49c5.8,2.76,7,5.58,4.77,11.52C527.39,379,526.42,380.72,525.6,382.44Z"/><path class="cls-11" d="M445.07,63.9c-5.27.62-10.61.49-15.87,1.34a67.27,67.27,0,0,1,6.57-17.86,5.41,5.41,0,0,1,5.56-3,4.6,4.6,0,0,1,4,4.47A65.73,65.73,0,0,1,445.07,63.9Z"/><path class="cls-12" d="M233,185.06c-2.15-1.18-2.64-3.07-2.13-5.29s2.2-2.75,4.14-2.91c5.15-.44,10.27-1.24,15.47-1a19.54,19.54,0,0,1,4.7.75c1.71.49,3.46,1.13,3.79,3.17a4.73,4.73,0,0,1-2.29,5.32,4.68,4.68,0,0,1-3,.68q-8.86,0-17.73,0A4.51,4.51,0,0,1,233,185.06Z"/><path class="cls-13" d="M238.91,242.68c-5.2,0-10.39,0-15.59,0a15.94,15.94,0,0,1-4.25-.48,4.56,4.56,0,0,1-1-2.28c.34-3.18,1.05-3.92,4.16-4,4.93,0,9.87,0,14.81,0a7.52,7.52,0,0,1,3.37,1C241.73,240,241.48,241,238.91,242.68Z"/><path class="cls-13" d="M142.69,202.26c.05-3.38.84-4.2,4.26-4.2a53.52,53.52,0,0,0,7.37-.65c2.35-.33,3.94.8,4.13,2.89s-1.06,3.09-3.07,3.51a48.25,48.25,0,0,1-9.73.93A3.75,3.75,0,0,1,142.69,202.26Z"/><path class="cls-13" d="M83.68,249.41c-2.21-.19-4.42-.33-6.62-.59A7,7,0,0,1,73,247l0-1.38c.33-2.78,1-3.33,3.78-3.47,2.41-.12,4.74.49,7.12.62A3.52,3.52,0,0,1,87.49,246C87.22,248.23,86.16,249.61,83.68,249.41Z"/><path class="cls-15" d="M233,185.06l23.68,0-.06,3.22q-10.26.27-20.52.52a6.32,6.32,0,0,0-2.55.47A13.16,13.16,0,0,1,233,185.06Z"/><path class="cls-13" d="M501.21,357.48c-.68,2.66-2.43,4.8-3.7,7.15-.87,1.6-2.66,1.72-4.2.84a3.08,3.08,0,0,1-1.44-4.09,20,20,0,0,1,3.06-5.34C497.45,353.41,499.7,353.93,501.21,357.48Z"/><path class="cls-16" d="M311.77,359.94c-1.48.57-2.95,1.18-4.45,1.7-2.31.81-4.13.15-4.84-1.67s.18-3.51,2.49-4.38c2.06-.78,4-2.09,6.32-2C314.59,355.44,314.76,357.64,311.77,359.94Z"/><path class="cls-16" d="M357.07,367.68c-1.46.94-2.82,2.06-4.59,2.42s-3.4-.25-4-2.06a3,3,0,0,1,1.89-4.08,6.66,6.66,0,0,0,3.41-2.45c1.93-1.54,3.07-1.35,4.75.75l.48,1C359.21,365.09,358.27,366.44,357.07,367.68Z"/><path class="cls-13" d="M511.75,361a24.54,24.54,0,0,1-2.77,5.77,3.57,3.57,0,0,1-4.88,1.48c-1.83-1.19-1.79-2.83-.91-4.59.78-1.55,1.57-3.09,2.36-4.64C508.62,357.12,510.32,357.66,511.75,361Z"/><path class="cls-17" d="M82.68,157.61a3.38,3.38,0,0,1-4.48-.88c-1.16-1.47-.75-3,.21-4.39,1.21-1.81,1.89-4.08,4.3-4.82,3.85,1,4.62,2.74,2.58,6.16C84.48,155,83.55,156.3,82.68,157.61Z"/><path class="cls-18" d="M316.14,369c-1.36.83-2.7,1.69-4.07,2.49a3.44,3.44,0,0,1-4.86-.88c-1.15-1.88-.37-3.37,1.18-4.56,1.13-.87,2.37-1.6,3.56-2.4a3.5,3.5,0,0,1,4.44,1C317.69,366.15,316.93,367.56,316.14,369Z"/><path class="cls-13" d="M82.21,172c-1.07,1.17-2,2.42-3.22,3.47a3.12,3.12,0,0,1-4.65-.2,3.09,3.09,0,0,1,.22-4.49,17.64,17.64,0,0,0,1.73-1.94c2.06-2.91,3.74-3.11,6.31-.69A5.46,5.46,0,0,1,82.21,172Z"/><path class="cls-19" d="M323.44,120.09a39.06,39.06,0,0,0,8.68-10.34c.79-1.41,2.18-1.4,2.8,0s1.92,2,3.39,2.18l-.45,1.8c-.77.67-1.67.18-2.5.25-1.55.13-3.08.32-3.77,2s.45,2.51,1.41,3.47a1.79,1.79,0,0,1,.52.78,9,9,0,0,1-2.48,1.86A13.07,13.07,0,0,0,323.44,120.09Z"/><path class="cls-17" d="M64,172.64c1,.6,2,1.22,3.07,1.8,1.85,1,2.77,2.55,2,4.56s-2.67,2.22-4.62,1.7L62,179.16c-1.52-.95-2.61-2.16-2.09-4.1S62.06,172.45,64,172.64Z"/><path class="cls-13" d="M523.29,365.74c0,2.61-1.81,4.4-3.29,6.16-1,1.12-2.77.78-4-.11a2.68,2.68,0,0,1-.93-3.58c.88-1.77,1.61-3.66,3.39-4.8C520.92,362.43,522.37,363.54,523.29,365.74Z"/><path class="cls-13" d="M64.44,154.49c2.88,0,4.31,2.17,5.67,4.19a2.87,2.87,0,0,1-.78,3.86c-1.76,1.58-3.37.67-4.89-.53-.4-.48-.8-1-1.22-1.42C61,158.15,61.41,156,64.44,154.49Z"/><path class="cls-18" d="M333.52,120.21c-1.87-.66-3.08-1.9-2.69-3.94.41-2.2,2.16-2.79,4.18-2.73.95,0,1.9.14,2.85.21,1.66.88,2.6,2.18,2,4.09s-2.11,2.44-4,2.34C335.12,120.14,334.32,120.2,333.52,120.21Z"/><path class="cls-17" d="M71.81,137.89c1.77,2.87,1.71,4.23-.22,5.57s-3.31.39-4.74-.77c-.29-.48-.61-.93-.86-1.42-1.11-2.17-.65-4.26,1.12-5.22S70.41,135.74,71.81,137.89Z"/><path class="cls-17" d="M494.6,383a9.26,9.26,0,0,1,1.13-.36,3.6,3.6,0,0,1,4.25,1.86,3,3,0,0,1-.8,3.88,3.64,3.64,0,0,1-4.82,0c-.24-.2-.45-.43-.68-.65C492.57,385.9,493.11,384.37,494.6,383Z"/><path class="cls-20" d="M236.49,208.39a158,158,0,0,0,18.72-.21c-.17.6-.34,1.21-.52,1.81-7.66.57-15.34.74-23,.86a4,4,0,0,1,3-.35C236.53,210.76,236.68,209.79,236.49,208.39Z"/><path class="cls-8" d="M393.15,160.94c-4.11-3.38-7.23-7.41-8.3-12.77-1.2-6-.39-11.59,3.34-16.61,3.47-4.67,3.41-5.82-.15-10.51-2-2.62-4.07-5.25-4.52-8.61-.67-5,1.61-8.91,5.61-11.68,10-6.88,20.62-8.7,31.93-3.64a9.53,9.53,0,0,1,5.52,10.25c-.41,3.16,1.45,4.82,4.62,4,2-.54,3.93-1.35,5.9-2,9.23-2.94,15.95,2,16.19,11.61a32.58,32.58,0,0,1-2.11,11.48,23,23,0,0,0,.95,17.91c1.83,4,3.58,8,2.56,12.66a16.09,16.09,0,0,1-4.26,7.64c-2.24,2.4-4.67,4.61-7,7-3.12,3.18-3.53,5.45-1.67,9.53a23,23,0,0,1,1.65,5,9.82,9.82,0,0,1-6.31,11.13,16.48,16.48,0,0,1-11.49.75c-5.28-1.73-10.24-4.17-13.59-8.93-2.4-3.41-2.93-7-1.06-10.84.63-1.29,1.36-2.54,2.09-3.77,2.89-4.81,2.37-6.42-2.75-8.46-.58-1.17.4-1.75,1-2.45,2.27-2.89,4.77-5.58,6.95-8.54,3.07-4.16,5.66-8.51,5.71-13.91,1.29-2.6,3.22-4.76,4.86-7.12,2.32-3.35,4.68-6.69,5.68-10.74,1.05-1.62,2.64-2.74,4-4.11a22.28,22.28,0,0,0,4.29-6.56,2.51,2.51,0,0,0-.1-2.91,2.87,2.87,0,0,0-3.24-1,12.36,12.36,0,0,0-8.28,7.34c-.45,1.11-.7,2.29-1.2,3.38-3.18,3.45-6.43,6.84-8.86,10.91-.93,1.57-1.45,3.39-2.86,4.66-4.38,1.24-7.67,4.13-10.8,7.21-4,4-7.95,8-12.23,11.72C394.59,160.43,394.12,161.2,393.15,160.94Z"/><path class="cls-21" d="M358.49,362.26c-1.48-.91-3-1.7-4.75-.75,0-.52-.09-1.05-.13-1.57a2.09,2.09,0,0,1,.53-1c1.72-2.34,1.7-2.71-.21-4.78a1.67,1.67,0,0,1-.57-1c-.81-1.7-2.41-1.81-4-2-.7-9.12-1-18.27-1.8-27.39-.31-3.47-.54-7-.62-10.49,2.84-1.88,3.56-4.92,3.16-7.81a263.89,263.89,0,0,1-2.49-28.34c-.29-10.69-.94-21.39-.46-32.1.13-2.71.14-5.43.2-8.14a12.51,12.51,0,0,0,1.51-6.41c-.05-7.47,0-14.95-.06-22.42a1.31,1.31,0,0,1,2,0,21.6,21.6,0,0,0,13,8.13c0,1.35.09,2.71,0,4.06-.22,2.59.91,4.08,3.42,4.57a19.33,19.33,0,0,0-.48,6.9c.33,3.28,1.67,4.5,5,4.59l4.08.09a6,6,0,0,0,1.08,3.23c-1.13,6.84-2.3,13.67-3.4,20.51q-3.81,23.85-7.56,47.71-3.24,20.55-6.4,41.1c-.17,1.1-.3,2.22-.55,3.3A22,22,0,0,0,358.49,362.26Z"/><path class="cls-14" d="M424.41,146.83c.31,7.13-3.89,12.2-7.88,17.38-2,2.63-4.55,4.87-6.2,7.8-3.34,3-5.77,6.8-8.73,10.14s-6.31,6.57-9.46,9.86c-.59.62-1.43,1.08-1.49,2.09a77.26,77.26,0,0,1-10.34-17.32,12.81,12.81,0,0,0-1.65-2.3l14.49-13.54c5.16-4.41,9.91-9.24,14.77-14,2.91-2.82,5.89-5.68,10.21-6.26C421.59,139.87,424.85,143,424.41,146.83Z"/><path class="cls-12" d="M149.62,81.21a208.77,208.77,0,0,1,.11-21.81c.27-5.27.1-10.54.59-15.81.56-6.12.77-12.27,1.09-18.41.08-1.58.61-2.61,2.34-2.72.71,0,1.42-.24,2.14-.27,21.9-.84,43.82-.78,65.73-.45,5.67.09,11.33.59,17,.79,2,.08,2.69.93,2.68,2.82-.07,12.17.1,24.33-.22,36.49-.16,5.91-.16,11.82-.28,17.73a7,7,0,0,1-.94,4.12c-2.52-2.46-3.47-5.88-5.23-8.8-3.21-5.36-6.51-10.65-10.16-15.71-2.18-3-3.22-3.18-6.4-1.39a35.75,35.75,0,0,1-4.64,2.5c-2.24-.39-4.07.18-5.26,2.27-1.21.14-1.61-.91-2.16-1.61-4.35-5.6-8.67-11.22-13.14-16.73-2.39-3-3.64-3-6.38-.41s-5.27,5.51-8.11,8.06a25.14,25.14,0,0,1-7.35,0,24.17,24.17,0,0,0-5.7-.14,2.36,2.36,0,0,0-2.45,2.15,2.59,2.59,0,0,0,2.07,2.81,12.32,12.32,0,0,0,3.78.33,9.28,9.28,0,0,1,2.83.24c1.42,1,.23,1.69-.32,2.25-2.74,2.78-5.35,5.66-8,8.51-4,4.31-8.43,8.24-12.38,12.62A1.34,1.34,0,0,1,149.62,81.21Z"/><path class="cls-7" d="M213.4,60c1.69-1.49,3.78-2.32,5.69-3.45a3.39,3.39,0,0,1,4.86.92,163.54,163.54,0,0,1,15.9,26.22c-.15,3.1-1.2,4.08-4.21,4.26-12.66.73-25.32,1.62-38,2.24a184.58,184.58,0,0,1-21.54-.72,144.26,144.26,0,0,1-22.65-3.55c-3.34-.78-3.8-1.42-3.85-4.71a91.86,91.86,0,0,1,6.71-7.1L172,57.73c1-1,2.23-.69,3.39-.55,1.53.18,3.13.53,4.15-1s.16-2.89-.76-4.16a.69.69,0,0,1,0-.68c2.41-3.72,5.83-6.51,9-9.49,1.52-1.42,3.44-.7,4.76,1L205.16,59q1.4,1.77,2.81,3.52c3.58,4.56,7,9.26,10.76,13.66.52.61,1,1.22,1.59,1.78,1.14,1.12,2.36,1.7,3.78.51s1.39-2.48.14-4c-3.24-3.93-6.39-7.94-9.49-12A4.46,4.46,0,0,1,213.4,60Z"/><path class="cls-13" d="M350.82,208.13l-2,0a6,6,0,0,1-2.47-3.39c-4.55-13.21-9.18-26.39-13.77-39.58-.92-2.65-.37-4.27,1.62-5s3.72.3,4.63,2.91q7,20,13.93,40C353.73,205.94,353.45,206.64,350.82,208.13Z"/><path class="cls-13" d="M153.91,181.55H112.16c-4.29,0-5.17-.94-5.16-5.22,0-13.52.42-27,1.6-40.51.44-5,2.44-7,7.5-7.53,7.12-.69,14.23,0,21.34.08l60.45.32c4.38,0,5,.63,5.06,5a379.7,379.7,0,0,1-1.59,42.66c-.33,3.57-1.45,4.69-5,4.69q-21.24,0-42.49,0Z"/><path class="cls-12" d="M154.55,183.07c2.21,0,4,1.46,4,3.3.07,2.19-2.61,5.26-4.65,5.31-1.86,0-4-2.14-3.95-4.1A4.46,4.46,0,0,1,154.55,183.07Z"/><path class="cls-21" d="M55.21,272.9q-.42,7.22-.83,14.42c-5.1-.82-10.06-2.43-15.28-2.44-.12-4.3.11-8.58.38-12.87,4.37.62,8.78.41,13.17.5A4.27,4.27,0,0,1,55.21,272.9Z"/><path class="cls-13" d="M295.88,314.19c-1.65.73-3.25.85-4.72-.43a5.52,5.52,0,0,1-.42-3.05l2.25-33c.34-5.11.65-10.22,1.05-15.32.18-2.32,1.46-3.47,3.49-3.38s3,1.3,2.86,3.84c-.73,11.4-1.53,22.81-2.29,34.21-.25,3.91-.42,7.83-.67,11.74C297.31,310.69,297.33,312.65,295.88,314.19Z"/><path class="cls-13" d="M315.68,267.14q-1,21.56-2,43.09a10.25,10.25,0,0,1-.32,2.13,3.06,3.06,0,0,1-3.64,2.36,2.69,2.69,0,0,1-2.64-3.08c.17-5,.36-10.06.6-15.09q.65-13.51,1.35-27c.1-1.91.21-3.83.39-5.73a3.23,3.23,0,0,1,3.52-3.13A2.84,2.84,0,0,1,315.8,264c-.06,1,0,2.08,0,3.12Z"/><path class="cls-13" d="M334.52,314.68a4.38,4.38,0,0,1-4.24.09,5.53,5.53,0,0,1-1.53-3.66c-1.13-15.31-1.72-30.63-1.62-46,0-2.72,1-4,3-4s3.37,1.36,3.36,4c0,11.75.52,23.48,1,35.22.13,3.11.49,6.21.73,9.31C335.41,311.38,335.83,313.16,334.52,314.68Z"/><path class="cls-8" d="M419.65,412.22c.07,4.22-3.87,9.17-8.88,11.13a16.73,16.73,0,0,1-1.82.58c-3.5.92-6.38-1.24-5.75-4.73a19.35,19.35,0,0,1,6.91-11.83,3.39,3.39,0,0,1,.39-.27C415.6,404.14,419.56,406.35,419.65,412.22Z"/><path class="cls-7" d="M408.47,379.47a8.08,8.08,0,0,0,2.22-1.26,6.87,6.87,0,0,1,8.53-1.1,8.27,8.27,0,0,1,4,8.25c-.13.78-.23,1.56-.35,2.34-1.4,4.06-5.37,6-9.12,4.41L410.44,391a7.36,7.36,0,0,1-3-8.86C407.69,381.19,408.17,380.37,408.47,379.47Z"/><path class="cls-12" d="M413.77,392.11c4.06.63,6.91-1.24,9.12-4.41l4.81,2.55a.87.87,0,0,1,0,.69c-2.17,3.13-3,6.4-1.2,10,.1.2-.05.46-.19.66-1.53,2.21-3.58,3.49-6.32,2.91s-4.19-2.38-5.11-5.08C414,397,412.89,394.75,413.77,392.11Z"/><path class="cls-10" d="M426.29,401.61c-2.61-4.17-1.59-7.89,1.41-11.36,3.06-1.59,4.69-1.51,6.79.35,2.53,2.25,3.07,4.37,1.87,7.5C434.67,402.53,430.56,405.25,426.29,401.61Z"/><path class="cls-12" d="M408.47,379.47c.6.49.27,1,0,1.49-1.67,3.42-1.2,6.47,1.55,9.15a2.72,2.72,0,0,1,.4.84,9.21,9.21,0,0,1-8.64,1.24c-4.25-1.46-5.28-5.67-2.16-8.93C402,380.8,404.77,379,408.47,379.47Z"/><path class="cls-8" d="M390.35,388.76a5.26,5.26,0,0,1-5.3,5.3c-2.71-.05-5.53-3-5.41-5.67s3-5.15,5.95-5.07S390.46,385.69,390.35,388.76Z"/><path class="cls-22" d="M396.45,404c.1,1.13-.74,1.52-1.55,1.85-2.55,1-5.29,1.08-7.95,1.56-1.14.21-1.09-.49-.88-1.32a9.5,9.5,0,0,1,6.71-6.23C395.24,399.45,396.56,400.94,396.45,404Z"/><path class="cls-16" d="M353.36,353.15c3.53,2.21,3.61,4.31.25,6.79-1.87,1.06-3.75,2.09-5.61,3.17s-3.38.61-4.51-1.13a3,3,0,0,1,1.19-4.48C347.51,355.94,350,353.59,353.36,353.15Z"/><path class="cls-10" d="M424.41,146.83c-.75-3.41-2.46-5.85-6.28-6.11,2.8-5.85,6.33-11.14,11.41-15.29.15.07.33.15.36.29.69,2.52,2.45,3.55,4.93,3.6a4.12,4.12,0,0,1-.48,2.74A92,92,0,0,1,424.41,146.83Z"/><path class="cls-11" d="M434.83,129.32c-3.23.84-4.39,0-5.29-3.89.95-5.61,4-9.39,9.46-11.25a3.63,3.63,0,0,1,4.13,1c1.14,1.18.75,2.34.19,3.72C441.52,123.21,438.35,126.39,434.83,129.32Z"/><path class="cls-10" d="M213.4,60c3.86,4.78,7.74,9.54,11.55,14.36a3.19,3.19,0,0,1-.6,4.83c-1.65,1.25-3.09.84-4.38-.66q-5.75-6.75-11-13.88a4.8,4.8,0,0,1-1-2.15C209,59.64,210.29,59.07,213.4,60Z"/><path class="cls-23" d="M172.15,37.47c-3.11-.16-6.22-.3-9.33-.49-2.25-.14-3.8-1.7-3.66-3.62s1.48-3.15,3.83-3c4.14.21,8.28.51,12.42.83,2.23.17,3,1.69,2.88,3.67s-1.37,2.75-3.26,2.69c-1,0-1.92,0-2.88,0Z"/><path class="cls-21" d="M231.16,37.8a3.23,3.23,0,0,1-3.78,3.36c-4-.44-8,0-11.94-.73-2.17-.42-3.64-2-3.41-3.85s1.6-2.74,4-2.59c3.82.25,7.65.4,11.47.57C229.94,34.67,231.11,35.7,231.16,37.8Z"/><path class="cls-23" d="M178.78,51.36c1.7,1.29,2.59,2.94,1.57,5s-2.83,1.9-4.76,1.51a20.29,20.29,0,0,0-3.58-.11c-2,0-4,0-6-.14-2.68-.15-4.17-1.57-4-3.72s1.4-2.92,4.12-2.93C170.35,50.92,174.55,51.64,178.78,51.36Z"/><path class="cls-10" d="M204.28,81.64a24,24,0,0,1-.32,2.63,3.59,3.59,0,0,1-3.37,2.93c-1.61.17-2.37-1-2.94-2.35a181.74,181.74,0,0,1-9.52-26.52,5,5,0,0,1,4.29-6.41A2.31,2.31,0,0,1,195,53.19C199.14,62.26,203.6,71.22,204.28,81.64Z"/><path class="cls-10" d="M186.2,63a11.29,11.29,0,0,1-.7,1.67c-2.58,4.41-5.15,8.82-7.79,13.19-1.35,2.23-3.1,2.75-5,1.59a3.7,3.7,0,0,1-1-5.59,126.32,126.32,0,0,0,8.18-12.94,3.07,3.07,0,0,1,3.82-1.66C185.36,59.7,186.18,60.9,186.2,63Z"/></g></g></svg>