<svg width="34" height="34" viewBox="0 0 34 34" fill="none" xmlns="http://www.w3.org/2000/svg">
<path fill-rule="evenodd" clip-rule="evenodd" d="M17 34C26.3888 34 34 26.3888 34 17C34 7.61116 26.3888 0 17 0C7.61116 0 0 7.61116 0 17C0 26.3888 7.61116 34 17 34ZM22.2657 10.5752L24.021 16.9385C24.0265 16.9585 24.0293 16.9792 24.0293 17V22.7777C24.0289 23.0841 23.907 23.3778 23.6904 23.5944C23.4738 23.811 23.1801 23.9329 22.8737 23.9333H11.3183C11.0119 23.9329 10.7182 23.811 10.5016 23.5944C10.285 23.3778 10.1631 23.0841 10.1627 22.7777V17C10.1623 16.9791 10.1647 16.9583 10.1699 16.9381L11.9263 10.5752C11.9671 10.4292 12.0545 10.3005 12.1751 10.2087C12.2958 10.1169 12.4431 10.067 12.5947 10.0667H21.5973C21.7489 10.067 21.8963 10.1169 22.0169 10.2087C22.1376 10.3005 22.2249 10.4292 22.2657 10.5752ZM12.4554 10.5765C12.4154 10.6072 12.3865 10.65 12.3731 10.6986L10.6973 16.7689H23.4947L21.8201 10.6986C21.8067 10.6498 21.7776 10.6068 21.7373 10.5762C21.6971 10.5455 21.6479 10.529 21.5973 10.529H12.5947C12.5443 10.5292 12.4954 10.5459 12.4554 10.5765ZM11.3183 23.471H22.8737C23.0576 23.471 23.234 23.398 23.364 23.268C23.494 23.1379 23.5671 22.9616 23.5671 22.7777V17.2311H10.625V22.7777C10.625 22.9616 10.698 23.1379 10.828 23.268C10.9581 23.398 11.1344 23.471 11.3183 23.471ZM11.4242 16.2156C11.4458 16.2441 11.4738 16.2671 11.5059 16.2829C11.538 16.2987 11.5733 16.3068 11.609 16.3067H22.5842C22.6198 16.3067 22.6549 16.2985 22.6868 16.2827C22.7187 16.2669 22.7465 16.2439 22.768 16.2156C22.7896 16.1873 22.8043 16.1543 22.8111 16.1194C22.8178 16.0844 22.8164 16.0484 22.8069 16.0141L21.4681 11.1608C21.4547 11.112 21.4256 11.069 21.3854 11.0384C21.3451 11.0078 21.2959 10.9912 21.2453 10.9912H12.9467C12.8961 10.9912 12.8469 11.0078 12.8067 11.0384C12.7664 11.069 12.7374 11.112 12.7239 11.1608L11.3851 16.0141C11.3756 16.0484 11.3742 16.0845 11.381 16.1194C11.3878 16.1544 11.4026 16.1873 11.4242 16.2156ZM11.9113 15.8445L12.23 14.6889H21.962L22.2807 15.8445H11.9113ZM12.6763 13.0712H21.5157L21.8337 14.2267H12.3583L12.6763 13.0712ZM13.1228 11.4534H21.0692L21.3882 12.6089H12.8039L13.1228 11.4534ZM15.3366 18.1555H18.8554C18.9286 18.1557 19.0006 18.1733 19.0657 18.2067C19.1307 18.2402 19.1869 18.2886 19.2296 18.348C19.2723 18.4074 19.3003 18.4761 19.3112 18.5484C19.3222 18.6208 19.3158 18.6947 19.2927 18.764L19.0385 19.5302C18.9925 19.6683 18.9042 19.7884 18.7862 19.8735C18.6681 19.9586 18.5263 20.0044 18.3807 20.0044H15.8113C15.666 20.0042 15.5244 19.9583 15.4066 19.8732C15.2888 19.7882 15.2006 19.6683 15.1547 19.5304L14.8975 18.7638C14.8743 18.6943 14.868 18.6203 14.8791 18.5478C14.8902 18.4754 14.9183 18.4066 14.9612 18.3472C15.0041 18.2878 15.0605 18.2394 15.1258 18.2061C15.191 18.1728 15.2633 18.1554 15.3366 18.1555ZM18.5158 19.4985C18.5551 19.4701 18.5845 19.4301 18.5998 19.3841L18.8552 18.6178H15.3366L15.5922 19.3841C15.6075 19.4301 15.6369 19.4701 15.6762 19.4985C15.7155 19.5269 15.7628 19.5422 15.8113 19.5422H18.3807C18.4292 19.5422 18.4765 19.5269 18.5158 19.4985Z" fill="url(#paint0_linear)"/>
<defs>
<linearGradient id="paint0_linear" x1="17" y1="4.211e-07" x2="27.3249" y2="34" gradientUnits="userSpaceOnUse">
<stop/>
<stop offset="1" stop-color="#4F4F4F"/>
</linearGradient>
</defs>
</svg>
